<svg xmlns="http://www.w3.org/2000/svg" xml:space="preserve" viewBox="0 0 80 147">
  <g stroke-width=".513">
    <path fill="#f1cf81" stroke="#000" stroke-linejoin="bevel" stroke-width=".51" d="m72.257 79.629-4.924.91c-4.425.817-9.048 5.108-7.39 10.729.986 3.344 4.963 9.75 6.151 18.817 1.227 9.36-1.194 13.514-1.301 22.51-.062 5.23 5.158 7.869 10.166 8.897l5.767 1.184z" paint-order="markers fill stroke" transform="matrix(1.95409 0 0 1.94154 -115.964 -140.837)"/>
    <path fill="#fce9bf" d="M25.233 13.765 15.61 15.53c-8.648 1.587-8.868 9.362-5.628 20.275 1.927 6.492 8.781 19.972 11.104 37.574 2.398 18.174-.722 25.81-.932 43.275-.121 10.154 3.665 15.855 10.357 17.22l11.27 2.3z" paint-order="markers fill stroke"/>
    <path fill-opacity=".553" d="M13.573 33.565c-1.802-4.333.747-10.438.747-10.438l18.781 39.662-.363 48.666-6.27 20.05s-.435-1.02-1.165-1.772c-1.944-2.007-2.708-5.504-2.464-8.356 1.072-12.565 6.068-27.941 3.903-50.147-1.531-15.716-11.077-32.632-13.17-37.665" paint-order="markers fill stroke"/>
    <path fill="#fff4da" d="M9.421 17.443s-4.526 9.702-1.6 16.152c14.663 32.321 12.918 46.19 11.004 80.704-.668 12.038 5.827 16.993 5.827 16.993-3.434-7.393-4.337-10.213-3.551-16.97 2.55-21.917 4.484-45.73-9.51-81.62-2.961-7.595 2.062-18.31 2.062-18.31z" paint-order="markers fill stroke"/>
    <path fill="#c03835" stroke="#000" stroke-linejoin="bevel" stroke-width=".51" d="M64.633 82.78c-1.763-4.484 1.5-8.478 4.215-9.393 2.828-.953 7.325-1.218 9.445 2.835 2.694 5.15 11.675 23.59 9.665 65.723-.16 3.342-4.766 6.024-8.055 6.052-3.625.03-8.261-4.894-7.693-8.13 2.652-15.08 3.737-21.926 2.54-31.765-1.037-8.53-6.244-15.477-10.117-25.322Z" paint-order="markers fill stroke" transform="matrix(1.95409 0 0 1.94154 -115.964 -140.837)"/>
    <path fill="#9a2d2b" d="M32.462 24.354c-1.04-4.807 4.696-9.135 7.989-9.721 3.52 3.002-1.221-3.224.26.181 7.035 16.178 18.448 52.362 15.203 119.941-.14 2.922-.904 3.818-2.202 5.16-2.145.905-5.165-1.284-8.097-3.254-6.546-4.397-7.415-9.066-6.32-15.35 4.44-25.464 4.147-33.823 2.725-53.016-1.2-16.187-8.304-28.158-9.558-43.941" paint-order="markers fill stroke"/>
    <path fill="none" stroke="#000" stroke-linejoin="bevel" stroke-width=".51" d="M64.633 82.78c-1.763-4.484 1.5-8.478 4.215-9.393 2.828-.953 7.325-1.218 9.445 2.835 2.694 5.15 11.675 23.59 9.665 65.723-.16 3.342-4.766 6.024-8.055 6.052-3.625.03-8.261-4.894-7.693-8.13 2.652-15.08 3.737-21.926 2.54-31.765-1.037-8.53-6.244-15.477-10.117-25.322Z" paint-order="markers fill stroke" transform="matrix(1.95409 0 0 1.94154 -115.964 -140.837)"/>
    <path fill="#681816" d="M24.888 44.623c-.27 2.069 8.116 3.572 13.414 1.412 4.877-1.988 8.72-6.32 7.594-8.02-1.177-1.777-4.534 1.438-9.389 3.351-5.36 2.113-11.388 1.484-11.619 3.257m7.796 21.701c-.42 2.043 7.833 4.155 13.275 2.388 5.01-1.627 9.159-5.666 8.16-7.444-1.044-1.858-4.627 1.102-9.609 2.656-5.5 1.716-11.466.648-11.826 2.4m1.77 20.259c-.656 1.98 7.293 5.043 12.905 3.924 5.165-1.03 9.758-4.557 8.974-6.44-.819-1.966-4.724.555-9.853 1.516-5.663 1.06-11.464-.697-12.026 1m-2.869 22.69c-.842 1.909 6.78 5.713 12.473 5.132 5.24-.535 10.148-3.61 9.546-5.558-.628-2.036-4.755.103-9.953.572-5.738.518-11.345-1.783-12.066-.146" paint-order="markers fill stroke"/>
    <path fill="#f1cf81" d="M66.736 18.807c-1.31-2.307-3.27-3.557-5.351-4.563-4.57-2.21-11.048-3.292-15.13-2.29-9.21 2.26-9.75 9.657-6.281 21.343 2.064 6.956 4.072 17.562 6.86 36.385 1.897 12.8.453 31.385-2.44 51.864-1.52 10.767 8.673 14.236 15.857 14.638 3.529.197 5.629.186 9.254-.686 3.016-.725 4.814-3.615 5.167-5.453 4.54-23.666 5.827-36.887 3.987-63.85-1.87-27.403-5.535-36.14-11.923-47.388" paint-order="markers fill stroke"/>
    <g stroke-width=".499" paint-order="markers fill stroke" transform="matrix(.99723 -.09888 .09894 .99667 -67.8 -51.93)">
      <path d="m86.44 80.587 10.794-5.005.821 1.963-2.18 1.028c1.305 5.397-7.222 8.84-9.435 2.014"/>
      <path fill="#fff" d="m87.969 81.14 6.117-2.51s1.445 3.498-1.645 4.582c-3.078 1.08-4.472-2.072-4.472-2.072"/>
      <ellipse cx="70.027" cy="98.052" rx="1.183" ry="1.61" transform="rotate(-12.012)"/>
    </g>
    <g stroke-width=".499" paint-order="markers fill stroke" transform="matrix(.99723 -.09888 .09894 .99667 -67.392 -51.951)">
      <path d="m83.77 80.809-11.791-1.597-.206 2.117 2.387.339c.346 5.542 9.508 6.316 9.61-.86"/>
      <path fill="#fff" d="m82.472 81.788-6.587-.594s-.347 3.77 2.925 3.894c3.259.124 3.662-3.3 3.662-3.3"/>
      <ellipse cx="-69.105" cy="88.574" rx="1.183" ry="1.61" transform="rotate(-5.15)scale(-1 1)"/>
    </g>
    <path d="M16.123 16.812c7.71 3.46 10.985 2.167 15.053-3.984-3.796 3.916-6.808 6.518-15.053 3.984m.713-14.216 1.736-.95c-6.023 4.956-4.851 11.949-4.851 11.949s-2.294-6.133 3.115-11m2.612-1.12-.562.557c7.779-.58 13.16 5.38 13.16 5.38S28.378.358 20.41 1.124z" paint-order="markers fill stroke"/>
    <path d="m18.033 1.615.712-.272c2.995 3.476 4.274 9.184 4.274 9.184s-2.31-5.058-5.242-8.838zM35.76 145.192l1.978.947c-7.19-5.583-7.355-15.497-7.355-15.497s-1.162 8.961 5.376 14.55m2.917.998-.69-.65c8.143-.837 12.526-10.209 12.526-10.209s-2.4 10.523-10.773 11.141z" paint-order="markers fill stroke"/>
    <path d="m37.188 146.296.788.225c2.409-5.436 2.607-13.596 2.607-13.596s-1.39 7.48-3.674 13.323zM49.23 61.278c-71.172-61.235-35.586-30.617 0 0" paint-order="markers fill stroke"/>
    <path fill="#fff4da" d="M45.769 32.948c-1.975-9.264-4.256-15.23 3.73-21.526-11.51 1.407-12.994 10.19-9.525 21.875 2.064 6.956 4.072 17.562 6.86 36.385 1.897 12.8.453 31.385-2.44 51.864-1.52 10.767 9.896 14.174 15.857 14.638-9.906-4.266-11.462-9.72-10.616-13.734 2.753-13.071 4.55-34.687 3.147-52.518-.976-12.405-5.02-27.63-7.013-36.984" paint-order="markers fill stroke"/>
    <path fill="none" stroke="#000" stroke-linejoin="bevel" stroke-width=".546" d="M93.497 82.226c-.671-1.189-1.674-1.833-2.74-2.35-2.338-1.139-5.653-1.696-7.742-1.18-4.713 1.164-4.99 4.974-3.214 10.993 1.056 3.582 2.084 9.045 3.51 18.74.971 6.593.232 16.165-1.248 26.713-.778 5.546 4.438 7.332 8.115 7.54 1.805.1 2.88.095 4.735-.354 1.544-.374 2.464-1.862 2.644-2.809 2.324-12.19 2.982-18.999 2.04-32.887-.956-14.113-2.832-18.613-6.1-24.406Z" paint-order="markers fill stroke" transform="matrix(1.95409 0 0 1.94154 -115.964 -140.837)"/>
    <g stroke-width=".603" paint-order="markers fill stroke">
      <path fill="#fff" stroke="#000" stroke-linejoin="bevel" stroke-width=".594" d="M85.05 91.656c1.385.294 2.672-.393 5.466-1.486 2.327-.91 8.531-3.73 9.18 3.02.498 5.195-4.919 4.965-6.549 4.625-2.386-.498-5.456-1.8-7.501-1.305-3.519.85-7.42.262-7.448-2.358-.027-2.598 2.598-3.398 6.852-2.496z" transform="matrix(.82806 -.04919 .04926 .8284 -49.53 -41.155)"/>
      <path d="m21.26 30.48.34-.008.115 4.43-.34.01zm1.72-.077.342-.009.115 4.431-.341.009zm1.642.007.341-.008.115 4.43-.34.01zm1.95-.1.341-.009.115 4.431-.34.009zm1.768-.45.341-.009.115 4.431-.34.009zm1.951-1.057.341-.009.158 6.072-.341.009zm2.245-.78.34-.01.188 7.22-.341.01zm2.263-.059.34-.009.187 7.188-.34.009z"/>
      <path fill="none" stroke="#000" stroke-linejoin="bevel" stroke-width=".338" d="m78.198 94.152 21.498-.961Z" transform="matrix(.82806 -.04919 .04926 .8284 -49.53 -41.155)"/>
      <path d="M38.744 30.762c-.102-2.325-.34-3.845-1.831-4.773-2.11-1.313-3.841-.084-5.485 1.33 2.24-.388 5.213-2.373 7.316 3.443"/>
    </g>
    <path d="m37.277 31.917-.682 2.127.61-.238.393-1.61z" paint-order="fill markers stroke"/>
    <path fill="#502d16" stroke="#000" stroke-linejoin="bevel" stroke-width=".204" d="m101.987 96.412.947 12.751c.196 2.633-6.26 3.462-6.08.332l.742-13.015c.118-2.07 4.24-2.097 4.391-.068z" paint-order="fill markers stroke" transform="matrix(.89933 .289 -.28922 .89867 -26.686 -84.167)"/>
    <path fill="#61361b" d="M33.18 30.888c1.44.859 2.25 1.567 3.552 3.03-1.777-1.14-2.277-1.61-3.552-3.03m-1.225 3.171c1.44.859 2.555 1.891 3.857 3.354-1.777-1.14-2.582-1.933-3.857-3.354m-1.439 3.621c1.44.86 2.951 2.29 4.253 3.753-1.777-1.14-2.978-2.331-4.253-3.752" paint-order="fill markers stroke"/>
    <path fill="#999" stroke="#000" stroke-linejoin="bevel" stroke-width=".099" d="M75.851 93.508c.966.311 1.194 1.037 1.053 1.53-.363 1.269-3.383.674-2.847-.751.229-.61.91-1.064 1.794-.779z" paint-order="fill markers stroke" transform="matrix(1.95409 0 0 1.94154 -115.964 -140.837)"/>
    <path fill="#4d4d4d" d="M28.744 43.47c.148.24.643 1.005 1.441 1.23.798.224 2.08.445 2.485.288s1.072-.326 1.28-.674c.209-.347.436-.983.316-1.653-.117-.658-.822-1.174-1.159-1.346-.204-.105-.408-.011-.114.137.263.132.365.244.508.381.228.22.026.24-.08.165-.365-.262-.596-.429-.772-.54-.261-.166-.398-.007-.164.167.256.192.387.308.539.44.602.52.242.407-.042.188s-.51-.35-.804-.54c-.293-.19-.463-.051-.065.173.979.553 1.294 1.302.979 1.29-.156-.005-.202-.07-.536-.434-.334-.363-.548-.368-.186.094.372.474.161.605-.113.831-.512.423-1.345.28-1.786-.21-.63-.697-.65-.354-.2.11.371.383.045.348-.257.084-.251-.22-.35-.303-.417-.693-.077-.445-.235-.376-.212.114.02.455-.187.677-.21.03-.008-.193-.116-.247-.138.038-.05.634-.293.33-.293.33" paint-order="fill markers stroke"/>
    <g stroke-width=".613" paint-order="fill markers stroke">
      <path fill="#ff6a00" d="M33.075 44.193c-.485.552-.082.4-1.227.498-.133.012-.285.069-.399.03-.218-.271-.042-.186-.445-.295a1.2 1.2 0 0 0-.27.007c-.018.106-.186.234-.054.316.472.294.893.156 1.351.059.248-.053.578-.054.74-.166.19-.13.134-.322.2-.483a.4.4 0 0 0 .104.034"/>
      <path fill="#ff6a00" d="M31.336 44.494c1.901-.063.34.102 1.602-.304.071-.023.336.001.253.008-.204.016-.444.082-.617.022-.002 0-.676-.632-.276-.257l.177.09c.035-.005-.079-.266-.114-.262l-.485.248c.09.076.109.2.271.228.152.026.277-.082.427-.108.13-.023.273-.061.405-.04.063.01.045.095-.019.102-.247.027-.511-.041-.76-.017-.328.031-.625.12-.938.18-.015.002.06.113.074.11"/>
      <path fill="#ff6a00" d="M31.016 44.366c-1.402.002.356-.551-.018-.642-.144-.034-.405.073-.366.153.06.121.464.125.56.24.053.064-.097.144-.216.173-.074.018.018-.084.027-.126l.051-.269c0-.027-.74-.035-.74-.008l.64.282c.707.248.273.131.142-.047-.077-.104-.027-.23-.136-.327-.301-.266-.618-.104-.648.13-.02.155.115.306.172.46.003.019.535 0 .532-.02"/>
      <path d="M30.077 44.348c-.161-.171-.295-.35-.483-.514-.109-.094-.196-.278-.401-.256-.2.021-.192.212-.118.312.052.07.266.061.407.078.209.024.482.12.636.044.147-.072-.057-.21-.085-.316-.023-.102.058-.227-.069-.307a1.04 1.04 0 0 0-.628-.132c-.14.02-.12.178-.007.227.108.047.274-.081.405-.055.471.093.228.39.407.022.333-.404.438-.296-.535-.261-.087.003-.308-.025-.26.013.089.072.775.247.949.256.151.008.296-.032.445-.048-.028-.08-.03-.165-.084-.242-.064-.09-.099-.212-.267-.25-.108-.024-.234.079-.222.14.044.224.342.29.683.245.085-.011.138-.056.207-.083-.08-.021-.154-.047-.238-.063-.036-.007.11.017.094.036-.042.047-.288.068-.22.106.158.089.45.068.646.132.814.266.106.207.688.232.09-.138.4-.285.27-.416-.096-.095-.412.041-.589.095-.068.02-.141.078-.095.112.086.063.27.065.395.108.463.16.248.233.52-.006-.04.011-.078.043-.12.034-.074-.015-.082-.087-.16-.091-.054-.003-.023.061.01.084.069.048.196.066.271.112.097.06.11.157.236.198.113.036.263.003.394.005.365-.278.168-.04-.275-.16-.177-.047-.124-.375-.126.05a1.3 1.3 0 0 0 .283-.03c-.116.003-.241-.014-.349.01-.038.007-.021.045 0 .064.09.081.292.105.437.137-.074-.223.025-.253-.443-.341-.147-.028-.307-.029-.462-.036-.061-.003-.085.094-.065.084.145-.072.25-.163.375-.244-.014.008-.022.022-.042.025-.783.126.067.004-.34-.124a.9.9 0 0 0-.443.006c-.072.02-.126.108-.05.125.104.024.21-.044.314-.066-.158-.208.05-.022-.554-.105-.103-.015-.16-.081-.263-.096-.073-.01-.203.064-.219.026-.018-.046.18-.051.19-.097.007-.03-.108-.026-.162-.038-.354.316.182-.07-.5.005-.11.012-.03.123-.105.166-.032.018-.036-.048-.07-.066-.023-.011-.119-.02-.09-.014l.319.061c-.127-.05-.222-.162-.38-.153-.16.009-.16.155-.302.192-.111.029-.255-.04-.374-.019-.052.01.072.046.118.063.104.038.372.084.466.102-.252-.266.05-.032-.355.088-.107.031-.243-.028-.367-.03-.02 0-.06.026-.04.024.202-.026.417-.15.597-.095.156.048.005.187.007.28.091.059.775.414-.378.26-.202-.027-.203-.198-.371-.262-.09-.035-.342-.065-.335-.007.022.211 1.238.636 1.29.658 0 0-.02.005-.018.006"/>
      <path fill="#666" d="M32.516 44.605c-.387-.01-.777-.053-1.16-.027-.74.05-.816.38-1.132-.086-.026-.038.118.063.194.068.37.023.272-.036.216-.126-1.602-.295.839.096-.76.044-.098-.004-.165-.083-.151-.133.009-.032.123.013.184.011.087-.002.179-.049.254-.026.07.022.044.082.066.124-.053-.053-.455-.458-.505-.479-.057-.024-.042.093-.115.096a.2.2 0 0 1-.164-.087c-.014-.02.078.013.117.02.012-.005-.12-.093-.132-.089-.109.032-.357.031-.327.095.037.076.345.025.417.094.147.14-.054.362.172.471.202.097.495-.308.533-.353-.036.053-.095.164-.188.2-.117.046-.346.029-.393.101-.034.052.162.088.267.09.147.002.28-.044.41-.078.02-.005.009-.022.013-.033.094-.01.23-.074.282-.031.05.04-.194.02-.247.06-.095.069-.241.164-.166.24.056.058.17-.103.29-.114.304-.03.62 0 .93 0l1.04-.108c-.007.002.047.058.054.056z"/>
      <path fill="#ff6a00" d="M29.783 43.965c.572-.442.181-.259.99-.479.04-.01.155-.029.113-.037-.13-.025-.286-.048-.413-.02-.066.014-.059.086-.006.112.1.048.255.046.383.069.141-.174.089-.16.38-.295.05-.023.121-.08.166-.055.067.038-.002.102.007.153.026.145.013.11.178.21.227.064.498.05.732.099.113.023.269.038.316.096.49.612-.334.155.247.442.003.013.356-.01.353-.022-.08-.054-.178-.101-.241-.16-.103-.098-.119-.22-.253-.307-.106-.07-.29-.093-.435-.141-.485-.16-.32-.212-.545-.083.105-.03.183-.04-.002-.154-.254-.158-.723-.154-1.014-.036-.104.042-.137.116-.206.174.065.037.098.106.193.111.093.005.21-.042.218-.09.008-.05-.045-.551-.534-.31-.17.084-.117.265-.32.324-.314.092-.715.055-1.072.083-.043.028.723.344.765.316"/>
      <path fill="#ff6a00" d="M31.542 43.725c.02.13-.874-.34-1.103-.181-.573.396.035.376.471.46.093.017.268.01.274.062.006.047-.174.028-.261.042-1.101.369.337-.036-.723.03-.078.006-.09.08-.065.119a.52.52 0 0 0 .293.234c.072.021.19-.05.172-.092-.03-.07-.188-.104-.281-.156-.033.01.26.253.293.242.021-.04.094-.081.063-.12-.024-.03-.125-.008-.18-.024a1.3 1.3 0 0 1-.23-.092c-.011-.006-.01-.025.002-.023.119.025.214.108.338.094.16-.018.24-.116.36-.173.66-.222.305-.027.07-.196-.085-.06-.012-.17-.127-.214-.112-.044-.357-.063-.417.002-.054.059.206.076.319.104.224.055.459.097.689.145.035.002.079-.26.043-.263"/>
      <path fill="#333" d="M32.2 44.708c.131-.016 1.277-.13 1.436-.22.082-.045.029-.152-.076-.184-.164-.051-.918-.005-1.11-.016-.024-.002.007-.025.01-.037.797.193.33.187.897-.04.059-.023.266-.024.204-.046-.732-.26-.668-.182-1.148.032-.007 0 .024.05.031.05.169.009.338.036.506.027.04-.002.022-.041.047-.058.07-.046.343-.106.236-.127-.317-.063-.648.28-.72.335.208.088-.202-.074.423-.193.14-.026.311.013.44.055.106.035.334.134.219.16-.47.109-1.14-.255-1.528.123-.019.004.113.144.132.139m-.689-.448.52-.394c.092-.093.166-.191.276-.279.011-.009.068.012.051.018-.12.042-.293.045-.392.1-.088.05-.134.124-.13.192.002.032.092-.044.137-.066.385-.135.037.03-.079-.318-.01-.033.176.008.179.041.003.05-.081.098-.166.12a1.3 1.3 0 0 1-.483.044c-.213-.031-.364-.132-.546-.197.06.04.136.074.182.12.159.152-.332.101.41.238.054.01.081-.042.122-.063.013.001.046-.094.033-.095-.089-.025-.167-.076-.267-.073-.087.002-.423.153-.398.214.014.034.13-.013.196-.019l.361-.056c.157-.025.347-.017.47-.073.077-.035-.004-.112.044-.16.015-.015.12.015.091.024-.649.204-.332-.115-.557.387.18.017.399.11.54.051.132-.055-.066-.18-.028-.266.047-.107.21-.19.273-.294.023-.038-.1.058-.148.088-.129.08-.283.149-.383.238-.159.14-.257.298-.386.447a.3.3 0 0 0 .08.031zm-1.328-.015c-.021-.166-.149-.337-.064-.496.074-.138.44-.197.508-.335.027-.056-.211-.069-.317-.052-.22.033-.45.092-.581.19-.102.075-.032.183-.048.275a1 1 0 0 0 .176.02c.233-.069.648-.068.698-.205.08-.219-.511-.417-.65-.313-.148.113-.342.227-.366.364-.03.174.143.343.215.514-.005.016.424.054.43.038"/>
      <path fill="#ff3d00" d="m32.588 44.228.094-.183c.119-.07.293-.121.356-.208.137-.19-.28-.325-.585-.306-.239.185-.079.162-.43.129.027.005.055.02.083.015.526-.097.538-.122.026-.138-.024-.001.047.012.056.023.032.044.127.105.061.136-.13.062-.341.052-.512.078-.046-.006-.184-.019-.137-.017.225.005.464.073.673.031.109-.022-.387-.087-.28-.111.152-.035.346.016.486.064.093.032-.224-.023-.332-.01-.106.01-.192.051-.288.077l-.283.054c-.008.04.035.094-.024.12-.057.025-.194-.046-.224-.011-.147.176.302.15.35.253.023.052-.09.095-.135.142-.267-.083-.18.181-.086.157.066-.017.079-.093.018-.115-.097-.036-.262.03-.355-.01-.145-.061.642-.054.015-.049-.058-.003-.135-.03-.174-.008-.031.018.076.038.123.037.025 0 .01-.026.021-.038.03-.034.167-.084.1-.098-.2-.043-.326.04-.432.096-.19.098-.17.06.197.06a.7.7 0 0 0 .154-.028c-.068.043-.075.025.01.056-.1-.02-.192-.059-.299-.061-.063-.002-.168.015-.162.048s.115.042.178.036c.09-.008.143-.063.231-.074.185-.023.112.557.537.109-.167-.037-.325-.088-.5-.112-.032-.004-.096.023-.072.034.073.031.196.017.265.05.123.059.12.21.286.214.208.003-.684-.501.302-.281.04-.06.17-.12.122-.178-.054-.064-.24-.063-.355-.1-.014-.004-.045-.023-.028-.022.066.004.144.057.189.032.063-.036.01-.099.016-.148l.228-.104c.028-.046.091-.09.085-.137-.005-.033-.056-.067-.114-.08-.058-.014-.194-.025-.188.008.008.051.155.068.207.113.154.134-.513.062.383.069-.073-.049-.169-.09-.219-.147-.125-.14.182-.261-.492-.185-.074.008.104.058.164.083.368.153.116-.019.401.235q.027-.04.05-.08c.036-.068.04-.142.1-.205.034-.035.002.08-.017.119-.054.109-.242.217-.23.336.008.073.111.134.167.201a1 1 0 0 0 .219.029"/>
      <path fill="#ffb700" d="M30.927 43.944c.705-.386.442-.11.466-.56 0-.014.069-.034.045-.031-.212.025-.49.01-.624.1-.08.053.08.158.209.176.097.014.128-.08.193-.12.137-.05.481-.134.11-.28-.144-.056-.356-.022-.535-.02-.025.001-.058.018-.049.03.176.244.36.154.088.241.04-.178.612-.026.712-.149.136-.165-.815-.074-.843-.072a1 1 0 0 0 .194.024c-.04-.023-.06-.064-.12-.07-.038-.003-.028.04-.054.054-.284.156-.374.076-.064.188.18.005.377.056.538.015.083-.02.037-.107-.024-.144-.098-.06-.275-.067-.397-.113-.042-.016.163-.006.152.02-.037.083-.293.134-.257.218.058.135.327.22.49.33.22-.022.626.05.658-.064.036-.125-.415-.142-.571-.24-.64-.399.263-.093.259-.082-.045.12-.35.162-.526.243l-.086.303z"/>
      <path fill="#f20" d="M30.897 44.104c.201.519.118.013-.285.121-.097.027.106.11.205.135.045.012.118-.031.102-.056-.026-.04-.546-.307-.007-.024-.098.052-.194-.049-.282-.03-.072.015-.176.13-.116.105.095-.04.12-.12.226-.152.045-.014.186.046.134.044-.073-.004-.135-.031-.203-.047-.12-.04-.256-.071-.362-.122-.043-.02.131.003.164.028.028.02-.061.092-.026.075.094-.048.29-.114.218-.173-.129-.104-.624.182-.229-.026-.42.143-.1.09-.297.002-.019-.009-.031.046-.008.04.035-.01.077-.035.06-.054-.016-.016-.1-.01-.104.007-.01.05.047.098.07.148.005-.387-.061.26.236-.12.029-.037-.092-.065-.138-.097a.3.3 0 0 0-.089.038c-.045.004-.13-.01-.134.013-.008.04.556-.004.068-.114-.01.044-.005.09-.032.132-.013.02-.096.026-.082.046s.081.006.122.01q.034.003.067.011c.014.004.02.022.035.019.095-.023.173-.06.26-.09-.203.065-.52.08-.61.194-.062.082.33-.061.5-.05.163.01.013.443.384.278.142-.064-.348-.209-.134-.287.006.118.04.055-.327.097-.059.114.313.319.53.32.246 0 .105-.237.1-.255-.037-.023-.055-.06-.11-.069-.19-.031-.592.021-.242.217.479.267.686.223.631.008-.02-.078-.074-.152-.111-.229a.6.6 0 0 0-.184-.093"/>
    </g>
    <path fill="none" stroke="#000" stroke-linejoin="bevel" stroke-width=".099" d="M75.851 93.508c.966.311 1.194 1.037 1.053 1.53-.363 1.269-3.383.674-2.847-.751.229-.61.91-1.064 1.794-.779z" paint-order="fill markers stroke" transform="matrix(1.95409 0 0 1.94154 -115.964 -140.837)"/>
    <path fill="#999" d="M29.001 41.647c.988-2.32 5.082-1.067 5.37.767-1.412-2.687-4.871-2.041-5.37-.767" paint-order="fill markers stroke"/>
    <path fill="#e93f16" d="M28.989 41.722c.988-2.32 5.081-1.067 5.37.767-1.413-2.687-4.872-2.041-5.37-.767" paint-order="fill markers stroke"/>
    <path fill="none" stroke="#000" stroke-linejoin="bevel" stroke-width=".099" d="m78.356 88.995-1.452 6.043c-.3 1.248-3.393.67-2.847-.751l2.268-5.914c.36-.94 2.262-.34 2.03.622z" paint-order="fill markers stroke" transform="matrix(1.95409 0 0 1.94154 -115.964 -140.837)"/>
    <path fill="#fff" d="M41.335 30.99c-.328-.051.138 1.58-.4 2.358-.144.21-.412.493-1.17.86-.758.366-2.207.018-3.195 1.007-.887.887-.694 1.454-1.759 1.931-1.362.611-1.738.712-2.396 1.69-.263.393-.268.727.265.205s2.275-1.469 1.633-.796c-.672.703-1.531 1.542-2.31 1.682-.777.14-.692-1.061.097-1.66.79-.597 2.043-1.583 2.424-1.973.112-.115.03-.207-.148-.074-2.254 1.689-2.917 1.754-3.66 2.471-.804.774-.324 1.427-.497 2.292-.165.823-1.129.79-1.333 1.594-.133.523.102.94.126.621s.094-.517.138-.223.194.782.191.167c-.002-.614.12-.914.353-.084.15.533.747.785.45.425-.295-.36-.38-.721.114-.309s-.796-.628-.125-1.076c1.053-.703 2.12.212 2.374.488.253.276.761.025.17-.261-1.24-.6-.946-1.039-.476-.695s.787.447.615.296c-.4-.353-.457-.591-.052-.382.406.21.69.447.368-.015-.323-.463 1.462-2.888 3.392-3.115 1.93-.226 3.915-1.604 4.51-2.125.724-.636 1.391-1.723 2.105-1.985.071-.026.143-.07-.016-.053-.732.076-1.784 1.43-3.178 2.346-1.393.915-1.052-.169-.465-.485.586-.316.796-.335 1.159-.596s.628-.635-.542-.161c-1.17.473.97-.982 1.228-1.393.538-.856.327-2.444.183-3.005-.166-.646-.048.052-.173.033m-2.074 4.02c.246-.192.144.09.086.254-.054.152-.489 1.54-2.074 1.944-.984.25-2.971 2.01-2.653 1.463.253-.433.865-.822 1.303-1.318.57-.645.983-1.156 1.565-1.408.78-.34 1.525-.74 1.773-.935" paint-order="fill markers stroke"/>
  </g>
</svg>
